<svg width="1921" height="1024" viewBox="0 0 1921 1024" fill="none" xmlns="http://www.w3.org/2000/svg">
<path d="M1920.12 0H0.122559V1024H1920.12V0Z" fill="url(#paint0_radial_37_372)"/>
<path d="M0.122559 938.543H1920.12" stroke="#FFBFEB" stroke-width="4.73" stroke-miterlimit="10"/>
<path d="M0.122559 816.706H1920.12" stroke="#FFBFEB" stroke-width="4.73" stroke-miterlimit="10"/>
<path d="M0.122559 694.869H1920.12" stroke="#FFBFEB" stroke-width="4.73" stroke-miterlimit="10"/>
<path d="M0.122559 573.032H1920.12" stroke="#FFBFEB" stroke-width="4.73" stroke-miterlimit="10"/>
<path d="M0.122559 451.195H1920.12" stroke="#FFBFEB" stroke-width="4.73" stroke-miterlimit="10"/>
<path d="M0.122559 329.358H1920.12" stroke="#FFBFEB" stroke-width="4.73" stroke-miterlimit="10"/>
<path d="M0.122559 207.512H1920.12" stroke="#FFBFEB" stroke-width="4.73" stroke-miterlimit="10"/>
<path d="M0.122559 85.6747H1920.12" stroke="#FFBFEB" stroke-width="4.73" stroke-miterlimit="10"/>
<path d="M1917.73 1024V0" stroke="#FFBFEB" stroke-width="3.56" stroke-miterlimit="10"/>
<path d="M1770.35 1024V0" stroke="#FFBFEB" stroke-width="3.56" stroke-miterlimit="10"/>
<path d="M1622.96 1024V0" stroke="#FFBFEB" stroke-width="3.56" stroke-miterlimit="10"/>
<path d="M1475.58 1024V0" stroke="#FFBFEB" stroke-width="3.56" stroke-miterlimit="10"/>
<path d="M1328.2 1024V0" stroke="#FFBFEB" stroke-width="3.56" stroke-miterlimit="10"/>
<path d="M1180.82 1024V0" stroke="#FFBFEB" stroke-width="3.56" stroke-miterlimit="10"/>
<path d="M1033.44 1024V0" stroke="#FFBFEB" stroke-width="3.56" stroke-miterlimit="10"/>
<path d="M886.062 1024V0" stroke="#FFBFEB" stroke-width="3.56" stroke-miterlimit="10"/>
<path d="M738.682 1024V0" stroke="#FFBFEB" stroke-width="3.56" stroke-miterlimit="10"/>
<path d="M591.301 1024V0" stroke="#FFBFEB" stroke-width="3.56" stroke-miterlimit="10"/>
<path d="M443.921 1024V0" stroke="#FFBFEB" stroke-width="3.56" stroke-miterlimit="10"/>
<path d="M296.541 1024V0" stroke="#FFBFEB" stroke-width="3.56" stroke-miterlimit="10"/>
<path d="M149.161 1024V0" stroke="#FFBFEB" stroke-width="3.56" stroke-miterlimit="10"/>
<path d="M1.77979 1024V0" stroke="#FFBFEB" stroke-width="3.56" stroke-miterlimit="10"/>
<path d="M6.52686 245.094C25.9118 167.488 105.68 94.5465 223.39 46.8191C250.892 35.6631 281.195 25.6479 315.19 21.9404C349.185 18.2161 387.573 21.7391 412.179 34.6398C440.731 49.6039 444.869 73.7947 433.919 94.211C422.969 114.627 399.478 132.41 378.247 150.427C277.216 236.152 220.366 336.187 215.337 437.06C214.541 452.712 215.114 468.733 225.204 483.462C235.295 498.192 256.558 511.596 285.174 515.773C318.66 520.655 354.66 512.015 379.838 499.383C405.017 486.767 422.269 470.511 442.768 455.715C480.901 428.186 534.759 404.465 598.771 399.717C662.782 394.969 735.452 414.664 749.776 447.897C759.484 470.444 742.2 493.427 729.754 515.588C717.309 537.749 710.847 563.92 737.871 582.138C771.58 604.853 840.175 602.622 888.049 588.647C935.923 574.673 972.751 551.992 1019.54 537.028C1066.33 522.064 1133.05 516.83 1171.63 537.296C1205.02 554.995 1202.95 583.396 1198.65 608.242C1182.32 702.052 1166 795.88 1149.7 889.691" stroke="#EB86DC" stroke-width="10" stroke-dasharray="20 20"/>
<path d="M1902.41 3.94446C1936.19 62.2085 1887.91 127.083 1817.41 172.598C1746.91 218.113 1655.76 250.642 1578.61 292.248C1473.45 348.938 1395.27 422.758 1355.07 503.268C1337.98 537.476 1327.68 573.94 1340.62 608.778C1353.56 643.616 1393.44 676.591 1451.09 687.688C1499.41 697 1558.94 687.871 1586.11 662.608C1613.24 637.346 1596.15 597.891 1548.49 587.529C1496.65 576.249 1440.96 600.96 1414.06 629.371C1361.01 685.405 1378.41 761.455 1454.8 807.259C1531.14 853.062 1660.09 864.814 1756.46 834.751C1852.84 804.688 1908.57 735.327 1886.88 672.472" stroke="#EB86DC" stroke-width="10" stroke-dasharray="20 20"/>
<defs>
<radialGradient id="paint0_radial_37_372" cx="0" cy="0" r="1" gradientUnits="userSpaceOnUse" gradientTransform="translate(837.043 -160.55) scale(1302.99 1235.43)">
<stop stop-color="white"/>
<stop offset="0.99" stop-color="#E3BFD5"/>
</radialGradient>
</defs>
</svg>
