<svg width="759" height="566" viewBox="0 0 759 566" fill="none" xmlns="http://www.w3.org/2000/svg">
<path d="M757.101 45.1707V519.969C757.101 544.887 742.723 565.103 724.976 565.103C724.976 565.103 49.8715 565.103 32.1246 565.103C14.3776 565.103 0 544.887 0 519.969V45.1707C0 0 14.3776 0 32.1246 0H724.989C728.718 0 732.293 0.922222 735.611 2.53158C748.15 8.67971 757.113 25.4424 757.113 45.1707H757.101Z" fill="url(#paint0_radial_24_10)"/>
<g style="mix-blend-mode:multiply" opacity="0.12">
<path d="M755.613 138.327C644.082 174.321 532.871 212.728 423.903 262.024V262.025C376.713 283.382 330.258 306.655 282.416 323.424C255.334 332.89 227.889 340.241 200.332 347.549C173.663 354.621 146.883 361.654 120.38 370.509L117.816 371.371C81.3174 383.704 45.7562 399.358 9.07812 399.322H9.07617C7.22339 399.322 5.36185 399.275 3.5 399.193V330.052C124.263 296.536 243.373 252.363 362.378 208.276C482.021 163.954 601.561 119.722 722.768 86.3926L722.77 86.3916C733.647 83.3952 744.639 80.4314 755.613 77.3096V138.327Z" fill="url(#paint1_linear_24_10)" style="mix-blend-mode:multiply"/>
<path d="M755.613 138.327C644.082 174.321 532.871 212.728 423.903 262.024V262.025C376.713 283.382 330.258 306.655 282.416 323.424C255.334 332.89 227.889 340.241 200.332 347.549C173.663 354.621 146.883 361.654 120.38 370.509L117.816 371.371C81.3174 383.704 45.7562 399.358 9.07812 399.322H9.07617C7.22339 399.322 5.36185 399.275 3.5 399.193V330.052C124.263 296.536 243.373 252.363 362.378 208.276C482.021 163.954 601.561 119.722 722.768 86.3926L722.77 86.3916C733.647 83.3952 744.639 80.4314 755.613 77.3096V138.327Z" stroke="black" stroke-width="5"/>
</g>
<g style="mix-blend-mode:multiply" opacity="0.12">
<path d="M755.613 450.78C716.185 442.559 676.464 437.325 636.512 438.445L634.561 438.505C571.571 440.593 509.333 458.536 447.493 470.793H447.492C373.699 485.445 299.288 492.321 224.659 497.629C151.004 502.867 77.0662 506.583 3.5 514.755V466.674C45.3753 461.965 87.1526 455.009 128.789 448.1C339.086 413.198 550.743 377.917 755.613 302.603V450.78Z" fill="url(#paint2_linear_24_10)" style="mix-blend-mode:multiply"/>
<path d="M755.613 450.78C716.185 442.559 676.464 437.325 636.512 438.445L634.561 438.505C571.571 440.593 509.333 458.536 447.493 470.793H447.492C373.699 485.445 299.288 492.321 224.659 497.629C151.004 502.867 77.0662 506.583 3.5 514.755V466.674C45.3753 461.965 87.1526 455.009 128.789 448.1C339.086 413.198 550.743 377.917 755.613 302.603V450.78Z" stroke="black" stroke-width="5"/>
</g>
<g style="mix-blend-mode:multiply" opacity="0.12">
<path d="M701.171 9.5L657.708 12.5352H657.707C608.467 15.9861 558.787 19.4487 510.093 32.7061C471.701 43.1573 434.337 59.6235 397.144 75.1611L397.142 75.1621C285.317 121.997 172.08 162.274 57.8945 195.899H57.8916C39.8635 201.232 21.6414 206.43 3.5 211.895V152.662C53.6394 135.801 103.767 118.941 153.881 102.08L153.882 102.079C245.638 71.1831 337.356 40.3238 429.073 9.5H701.171Z" fill="url(#paint3_linear_24_10)" style="mix-blend-mode:multiply"/>
<path d="M701.171 9.5L657.708 12.5352H657.707C608.467 15.9861 558.787 19.4487 510.093 32.7061C471.701 43.1573 434.337 59.6235 397.144 75.1611L397.142 75.1621C285.317 121.997 172.08 162.274 57.8945 195.899H57.8916C39.8635 201.232 21.6414 206.43 3.5 211.895V152.662C53.6394 135.801 103.767 118.941 153.881 102.08L153.882 102.079C245.638 71.1831 337.356 40.3238 429.073 9.5H701.171Z" stroke="black" stroke-width="5"/>
</g>
<defs>
<radialGradient id="paint0_radial_24_10" cx="0" cy="0" r="1" gradientUnits="userSpaceOnUse" gradientTransform="translate(378.55 283.085) scale(424.692 435.93)">
<stop offset="0.245192" stop-color="#09A83D"/>
<stop offset="1" stop-color="#3C8755"/>
</radialGradient>
<linearGradient id="paint1_linear_24_10" x1="743.311" y1="95.8078" x2="-60.7899" y2="252.295" gradientUnits="userSpaceOnUse">
<stop stop-color="#4CAB6B"/>
<stop offset="1" stop-color="#3C8755"/>
</linearGradient>
<linearGradient id="paint2_linear_24_10" x1="780.953" y1="304.678" x2="-23.1516" y2="461.175" gradientUnits="userSpaceOnUse">
<stop stop-color="#4CAB6B"/>
<stop offset="1" stop-color="#084E1F"/>
</linearGradient>
<linearGradient id="paint3_linear_24_10" x1="714.17" y1="-52.6911" x2="-89.9342" y2="103.806" gradientUnits="userSpaceOnUse">
<stop stop-color="#4CAB6B"/>
<stop offset="1" stop-color="#075521"/>
</linearGradient>
</defs>
</svg>
