<svg width="1172" height="718" viewBox="0 0 1172 718" fill="none" xmlns="http://www.w3.org/2000/svg">
<path d="M1149.82 50.8062V584.841C1149.82 612.868 1127.99 635.607 1101.03 635.607H48.7881C21.8355 635.607 0 612.868 0 584.841V50.8062C0 22.7387 21.8355 0 48.7881 0H1101.05C1106.72 0 1112.15 1.03728 1117.19 2.84743C1136.23 9.76261 1149.84 28.6166 1149.84 50.8062H1149.82Z" fill="url(#paint0_radial_114_377)"/>
<path style="mix-blend-mode:multiply" opacity="0.12" d="M989.326 2.41092L883.458 7.64607C817.18 10.9353 750.694 14.2244 685.575 26.7785C634.206 36.6805 584.204 52.2826 534.08 67.1097C383.571 111.746 231.16 150.132 77.4684 182.18C51.7321 187.57 25.8228 192.788 0 198.333V137.009C68.1978 120.77 136.378 104.531 204.541 88.2914C328.121 58.8265 451.648 29.396 575.175 0H975.057C980.072 0 984.881 0.878267 989.343 2.41092H989.326Z" fill="url(#paint1_linear_114_377)"/>
<path style="mix-blend-mode:multiply" opacity="0.12" d="M1149.84 95.9443V149.486C979.61 178.753 809.985 209.938 643.836 250.01C572.353 267.257 501.514 286.173 428.644 299.789C346.068 315.177 261.382 323.669 178.629 338.617C123.689 348.514 68.7878 361.383 12.2654 361.354C8.18344 361.354 4.08195 361.281 0 361.149V301.707C368.352 247.39 726.627 158.036 1095.16 104.011C1113.3 101.347 1131.58 98.7261 1149.82 95.9297L1149.84 95.9443Z" fill="url(#paint2_linear_114_377)"/>
<path style="mix-blend-mode:multiply" opacity="0.12" d="M1149.84 284.86V338.402C979.61 367.669 809.985 398.854 643.836 438.926C572.353 456.173 501.514 475.089 428.644 488.705C346.068 504.093 261.382 512.585 178.629 527.533C123.689 537.43 68.7878 550.3 12.2654 550.27C8.18344 550.27 4.08195 550.197 0 550.065V490.623C368.352 436.306 726.627 346.952 1095.16 292.927C1113.3 290.263 1131.58 287.642 1149.82 284.846L1149.84 284.86Z" fill="url(#paint3_linear_114_377)"/>
<path style="mix-blend-mode:multiply" opacity="0.12" d="M1172 452.59V506.132C1001.77 535.399 832.143 566.584 665.994 606.656C594.511 623.903 523.672 642.819 450.802 656.435C368.226 671.822 283.54 680.314 200.788 695.262C145.847 705.16 90.946 718.029 34.4236 718C30.3416 718 26.2402 717.927 22.1582 717.795V658.353C390.511 604.035 748.785 514.682 1117.31 460.657C1135.46 457.992 1153.74 455.372 1171.98 452.575L1172 452.59Z" fill="url(#paint4_linear_114_377)"/>
<defs>
<radialGradient id="paint0_radial_114_377" cx="0" cy="0" r="1" gradientUnits="userSpaceOnUse" gradientTransform="translate(574.911 318.403) scale(644.988 490.317)">
<stop offset="0.245192" stop-color="#09A83D"/>
<stop offset="1" stop-color="#3C8755"/>
</radialGradient>
<linearGradient id="paint1_linear_114_377" x1="959.162" y1="-56.8461" x2="-84.4263" y2="229.987" gradientUnits="userSpaceOnUse">
<stop stop-color="#4CAB6B"/>
<stop offset="1" stop-color="#075521"/>
</linearGradient>
<linearGradient id="paint2_linear_114_377" x1="1127.36" y1="113.587" x2="8.94187" y2="521.855" gradientUnits="userSpaceOnUse">
<stop stop-color="#4CAB6B"/>
<stop offset="1" stop-color="#3C8755"/>
</linearGradient>
<linearGradient id="paint3_linear_114_377" x1="1127.36" y1="302.503" x2="8.94187" y2="710.771" gradientUnits="userSpaceOnUse">
<stop stop-color="#4CAB6B"/>
<stop offset="1" stop-color="#3C8755"/>
</linearGradient>
<linearGradient id="paint4_linear_114_377" x1="1149.52" y1="470.232" x2="31.1001" y2="878.5" gradientUnits="userSpaceOnUse">
<stop stop-color="#4CAB6B"/>
<stop offset="1" stop-color="#3C8755"/>
</linearGradient>
</defs>
</svg>
