<svg width="441" height="271" viewBox="0 0 441 271" fill="none" xmlns="http://www.w3.org/2000/svg">
<path d="M428.495 14.345L224.591 135.092L440.571 269.562V0.539551L428.495 14.345Z" fill="#D28B57"/>
<path d="M440.571 270.051C440.571 270.051 440.357 270.01 440.286 269.929L224.305 135.458C224.305 135.458 224.127 134.97 224.305 134.766L440.286 0.173141C440.286 0.173141 440.571 0.0102456 440.75 0.0509695C440.893 0.132418 441 0.295313 441 0.498933V269.522C441 269.522 440.893 269.888 440.75 269.97C440.714 269.97 440.643 269.97 440.571 269.97V270.051ZM225.198 135.092L440.143 268.381V1.72065L225.198 135.092Z" fill="#6A3205"/>
<path d="M428.495 14.345L440.571 0.539551H0.428711L224.591 135.092L428.495 14.345Z" fill="#D28B57"/>
<path d="M224.591 135.091C224.591 135.091 224.377 135.051 224.305 134.969L0.107186 0.865261C0.107186 0.865261 0 0.539469 0 0.335849C0.107186 0.172953 0.250101 0.0507812 0.428745 0.0507812H440.571C440.571 0.0507812 440.893 0.172953 440.964 0.335849C441.036 0.498745 440.964 0.743089 440.857 0.865261L224.877 134.929C224.877 134.929 224.698 135.051 224.591 135.051V135.091ZM1.46488 1.02816L224.627 134.399L439.571 1.02816H1.46488Z" fill="#6A3205"/>
<path d="M224.591 135.092L0.428711 0.539551V269.562L12.5408 255.757L224.591 135.092Z" fill="#D28B57"/>
<path d="M0.428745 270.051C0.428745 270.051 0.321559 270.051 0.250101 270.051C0.107186 269.969 0 269.806 0 269.603V0.539293C0 0.539293 0.107186 0.172777 0.250101 0.0506053C0.393016 -0.0715667 0.607389 0.0506053 0.714575 0.172777L224.877 134.725C224.877 134.725 224.984 134.928 224.984 135.051C224.984 135.173 224.948 135.295 224.877 135.376L0.714575 269.888C0.714575 269.888 0.535931 270.01 0.428745 270.01V270.051ZM0.85749 1.72029V268.381L224.019 135.091L0.85749 1.72029Z" fill="#6A3205"/>
<path d="M12.5408 255.756L0.428711 269.562H440.571L224.591 135.091L12.5408 255.756Z" fill="#D28B57"/>
<path d="M440.571 270.051H0.428616C0.428616 270.051 0.107057 269.929 0.0355998 269.766C-0.0358577 269.603 0.0355998 269.358 0.142786 269.236L224.305 134.766C224.305 134.766 224.734 134.603 224.912 134.766L440.893 269.236C440.893 269.236 441.036 269.562 441 269.766C440.928 269.929 440.785 270.051 440.607 270.051H440.571ZM1.46475 269.073H439.571L224.627 135.784L1.46475 269.073Z" fill="#6A3205"/>
<g style="mix-blend-mode:multiply" opacity="0.5">
<path d="M5.89536 171.01C5.71672 163.68 5.28798 156.391 5.3237 149.06C5.3237 141.567 4.53767 134.196 5.3237 126.703C5.68099 123.363 5.57381 119.983 5.60953 116.644C5.60953 112.938 5.96682 109.273 6.10974 105.567C6.39557 98.0331 5.75245 90.4585 5.64526 82.8838C5.50235 75.5535 5.75245 68.2232 5.28798 60.8929C4.71632 51.9743 4.46621 42.7707 5.18079 33.8521C5.53808 29.2911 5.64526 24.8929 5.43089 20.3318C5.28797 16.911 5.50235 13.5716 5.64526 10.1508C5.53808 10.0693 5.43089 9.94717 5.3237 9.86572C5.10933 12.5942 4.8235 15.3635 4.8235 18.092C4.8235 22.0015 5.0736 25.8702 4.85923 29.739C4.64486 33.4856 4.10893 37.1508 4.00174 40.8974C3.89455 45.0512 4.00174 49.2051 4.00174 53.3589C4.0732 60.7707 4.53767 68.1825 4.53767 75.5942C4.53767 83.0874 4.78777 90.5806 5.00214 98.1146C5.39516 112.531 3.75164 126.906 4.35903 141.323C4.96642 156.187 5.78818 171.092 6.00255 185.997C6.25265 204.811 5.96682 223.626 6.00255 242.44C6.00255 242.563 6.21692 242.359 6.21692 242.277C6.28838 226.354 6.21692 210.472 6.21692 194.549C6.21692 186.689 6.07401 178.83 5.85964 170.97L5.89536 171.01Z" fill="#D28B57"/>
<path d="M3.21563 229.042C3.21563 223.625 3.46573 218.168 3.39427 212.752C3.39427 209.861 3.03698 207.01 3.03698 204.119C3.03698 201.512 3.1799 198.906 3.00125 196.3C2.25095 185.671 2.60824 174.92 2.53678 164.291C2.53678 159.567 2.78688 154.924 2.46532 150.2C2.07231 144.662 2.78688 139.164 2.78688 133.625C2.78688 133.503 2.57251 133.707 2.57251 133.748C2.42959 139.042 1.89366 144.336 1.82221 149.63C1.82221 152.033 2.03658 154.395 2.03658 156.797C2.03658 159.485 1.75075 162.132 1.71502 164.82C1.67929 175.49 1.28627 186.282 2.00085 196.951C2.14376 199.273 2.14376 201.553 2.07231 203.874C1.96512 206.725 2.35814 209.535 2.50105 212.386C2.75115 218.046 2.60824 223.748 2.64397 229.449C2.71542 239.711 3.71583 249.933 3.89447 260.196C3.89447 260.318 4.10885 260.114 4.10885 260.073C4.00166 249.73 3.14417 239.467 3.21563 229.082V229.042Z" fill="#D28B57"/>
<path d="M10.1471 256.734C10.1471 256.734 10.4329 256.408 10.5758 256.246C10.5758 242.522 10.29 228.757 10.29 215.033C10.29 199.313 9.8255 183.635 10.1471 167.915C10.2185 164.128 10.3972 160.3 10.6473 156.513C10.7545 154.721 10.8259 152.929 11.076 151.178C11.2904 149.549 11.3261 149.875 11.3618 148.531C11.3261 147.553 11.5762 146.698 12.1121 145.884C12.5766 146.291 12.8982 146.779 13.0411 147.35C13.7557 149.101 13.6485 151.015 13.8986 152.847C14.1487 154.639 14.4702 156.39 14.7561 158.141C15.3635 161.929 15.292 165.716 15.5778 169.544C16.1852 177.404 16.2924 185.345 16.8641 193.246C17.4 201.268 17.9002 209.291 18.5076 217.313C19.2222 226.68 19.2222 236.087 19.4365 245.454C19.4365 245.535 19.5795 245.454 19.5795 245.372C19.9367 229.408 18.8291 213.526 17.8287 197.603C17.3285 189.621 16.8283 181.639 16.5068 173.657C16.3639 170.114 16.1495 166.571 16.1495 163.028C16.1495 159.2 15.0776 155.25 14.5417 151.463C14.2916 149.63 14.6489 146.006 12.4694 145.028C11.2189 144.458 10.7902 147.879 10.7902 148.083C9.43249 155.372 9.50395 163.069 9.3253 170.44C8.96801 186.119 9.39676 201.838 9.53967 217.517C9.64686 230.63 9.86123 243.743 10.2185 256.816L10.1471 256.734Z" fill="#D28B57"/>
<path d="M11.3618 247.897C11.3618 247.897 11.5761 247.816 11.5761 247.734C11.6833 241.992 11.4332 236.21 11.3975 230.468C11.3975 224.237 11.6119 218.006 11.6833 211.816C11.7191 205.585 11.7191 199.354 11.6833 193.083C11.6833 190.314 12.0049 187.544 11.9692 184.775C11.9692 183.839 12.1478 179.481 12.8266 182.617C14.1486 188.97 13.8271 195.689 14.3987 202.124C14.9704 208.273 15.2919 214.463 15.7921 220.612C16.2566 226.477 16.1494 232.382 16.6139 238.246C16.8283 241.137 17.0426 244.029 17.2927 246.961C17.3285 247.531 17.3999 248.101 17.4357 248.712C17.5428 248.59 17.6858 248.468 17.7929 248.345C17.7929 245.169 17.3999 241.952 17.1856 238.775C16.7568 232.3 16.864 225.784 16.3281 219.309C15.7921 212.508 15.3634 205.748 14.756 198.947C14.4344 195.486 14.3987 192.065 14.1129 188.603C13.8985 185.956 13.97 182.943 12.7552 180.458C12.7552 180.418 12.6837 180.377 12.648 180.418C10.6829 181.029 11.5047 184.775 11.5047 186.16C11.5047 189.499 11.2189 192.798 11.2903 196.137C11.3975 199.558 11.5761 202.938 11.469 206.318C11.0402 220.205 11.0045 234.011 11.3618 247.897Z" fill="#D28B57"/>
<path d="M13.6484 220.164C13.5769 221.874 13.7556 223.585 13.8627 225.295C14.1486 228.96 14.3272 232.707 14.2915 236.413C14.2915 239.752 14.1843 243.092 14.2915 246.431C14.3629 248.182 14.5059 249.892 14.6845 251.644C14.8631 251.44 15.0775 251.236 15.2562 251.033C15.1847 245.698 15.0418 240.322 15.0061 234.987C15.0061 231.363 14.6845 227.698 14.3272 224.073C14.0414 221.304 14.613 218.128 13.7198 215.481C13.6841 215.359 13.3983 215.644 13.434 215.725C13.8627 217.232 13.6841 218.657 13.6126 220.164H13.6484Z" fill="#D28B57"/>
<path d="M9.28941 14.4267C9.21795 14.1009 9.14649 13.7751 9.0393 13.4493C8.93212 13.3272 8.82493 13.2457 8.68202 13.1235C8.57483 14.8747 8.43192 16.6258 8.36046 18.4177C8.21754 21.3498 8.57483 24.2412 8.64629 27.1326C8.75348 32.9154 8.86066 38.6575 8.82493 44.4403C8.7892 56.2095 8.0389 68.0195 7.7888 79.7887C7.50297 91.843 7.96744 103.938 8.00317 115.992C8.00317 127.314 7.82453 138.635 7.93171 149.997C7.93171 150.078 8.11036 149.956 8.11036 149.875C8.32473 126.295 8.43192 102.716 8.7892 79.1371C8.96785 67.3679 9.78961 55.5579 9.82534 43.7887C9.82534 38.0466 10.0397 32.2638 9.53951 26.5624C9.18222 22.4901 9.25368 18.4584 9.28941 14.4267Z" fill="#D28B57"/>
<path d="M2.89409 7.4628C2.89409 7.4628 2.67972 7.25918 2.57253 7.17773C2.64399 9.13249 2.39389 11.0465 2.50107 13.0013C2.60826 15.1596 2.5368 17.318 2.50107 19.4764C2.50107 23.5081 2.17951 27.5397 2.17951 31.5714C2.17951 40.3678 1.89368 49.1642 2.0366 57.9605C2.39389 76.1642 2.0366 94.3678 2.25097 112.571C2.25097 112.694 2.42961 112.531 2.42961 112.449C3.07273 94.2049 2.75117 75.9605 2.42961 57.7162C2.35816 53.2773 2.21524 48.7976 2.42961 44.318C2.64399 39.8384 3.07273 35.4402 3.07273 30.9605C3.07273 26.9289 3.32283 22.9379 3.2871 18.9062C3.2871 16.7886 3.25138 14.6709 3.037 12.5533C2.85836 10.8429 3.037 9.09176 2.85836 7.42208L2.89409 7.4628Z" fill="#D28B57"/>
<path d="M12.005 18.1731C11.6834 17.3179 11.3261 16.5034 10.9689 15.689C11.0403 18.784 11.219 21.9197 11.3976 24.974C11.7192 30.146 11.7549 35.3179 12.2194 40.4899C12.6838 45.784 13.1126 51.3224 13.0054 56.6573C12.8982 62.1958 13.2912 67.8157 12.6838 73.3134C11.5048 84.2274 11.2904 95.3043 10.8617 106.259C10.4329 117.214 9.64689 128.006 10.2186 138.96C10.2186 139.164 10.5401 138.838 10.5401 138.757C10.5758 133.707 10.29 128.617 10.3615 123.567C10.4329 117.988 11.0403 112.408 11.3619 106.829C12.005 95.793 12.5767 84.7161 13.4341 73.6799C14.2916 62.7659 13.7557 51.7704 13.1126 40.8157C12.6481 33.2817 12.398 25.7478 11.9693 18.2139L12.005 18.1731Z" fill="#D28B57"/>
<path d="M18.7935 150.16C18.1861 146.535 17.15 142.992 16.3639 139.368C14.5775 131.304 14.0416 123.323 13.72 115.178C13.72 115.096 13.5414 115.218 13.5414 115.3C13.1126 123.078 13.6485 130.612 15.1491 138.309C15.8994 142.178 16.9713 146.006 17.8645 149.834C18.8292 153.866 18.9721 157.979 19.3294 162.092C19.3294 162.255 19.651 162.01 19.6152 161.888C19.4366 157.979 19.4009 154.069 18.7578 150.2L18.7935 150.16Z" fill="#D28B57"/>
</g>
<g style="mix-blend-mode:multiply" opacity="0.5">
<path d="M110.831 263.779C119.298 263.983 199.509 264.471 208.013 264.431C216.695 264.431 225.27 265.327 233.952 264.431C237.811 264.024 241.741 264.146 245.599 264.105C249.887 264.105 317.7 263.698 321.952 263.535C330.705 263.209 339.459 263.942 348.212 264.064C356.716 264.227 365.219 263.942 373.723 264.471C384.048 265.123 394.731 265.408 405.021 264.594C410.309 264.186 415.382 264.064 420.706 264.309C424.636 264.471 428.566 264.227 432.497 264.064C432.604 264.186 432.711 264.309 432.854 264.431C429.674 264.634 426.494 265.001 423.314 265.001C418.812 265.001 414.311 264.716 409.809 264.96C405.486 265.205 401.198 265.856 396.875 265.938C392.052 266.06 387.228 265.938 382.441 265.938C373.83 265.856 365.255 265.327 356.644 265.327C347.927 265.327 339.28 265.042 330.562 264.797C313.877 264.349 233.666 266.223 216.981 265.53C199.724 264.838 110.759 263.901 93.5021 263.657C71.7076 263.372 49.913 263.698 28.0827 263.657C27.9398 263.657 28.1542 263.413 28.2614 263.413C46.6974 263.331 65.1335 263.413 83.5695 263.413C92.6803 263.413 101.791 263.576 110.902 263.82L110.831 263.779Z" fill="#D28B57"/>
<path d="M43.589 266.875C49.8773 266.875 56.1656 266.589 62.4895 266.671C65.8123 266.671 69.1708 267.078 72.4936 267.078C75.5305 267.078 78.5318 266.915 81.5687 267.119C93.8951 267.974 106.329 267.567 118.655 267.648C124.122 267.648 129.517 267.363 134.983 267.73C141.379 268.178 219.517 267.363 225.913 267.363C226.056 267.363 225.841 267.608 225.77 267.608C219.625 267.77 213.515 268.381 207.37 268.463C204.619 268.463 130.124 268.218 127.337 268.218C124.229 268.218 121.156 268.544 118.048 268.585C105.65 268.626 93.1805 269.074 80.8184 268.259C78.1387 268.096 75.4948 268.096 72.8152 268.178C69.5281 268.3 66.2411 267.852 62.954 267.689C56.3799 267.404 49.7701 267.567 43.196 267.526C31.2983 267.445 19.4721 266.304 7.57445 266.101C7.43153 266.101 7.6459 265.856 7.75309 265.856C19.7222 265.979 31.6556 266.956 43.6248 266.875H43.589Z" fill="#D28B57"/>
<path d="M11.5404 258.933C11.719 258.77 11.9334 258.607 12.112 258.445C28.0471 258.445 43.9463 258.77 59.8814 258.77C78.103 258.77 96.289 259.3 114.475 258.933C118.87 258.852 123.3 258.648 127.695 258.363C129.767 258.241 131.839 258.159 133.876 257.874C135.769 257.63 207.12 257.589 208.656 257.549C209.763 257.589 210.8 257.304 211.729 256.693C211.264 256.164 210.692 255.797 210.049 255.635C208.013 254.82 134.09 254.942 131.946 254.657C129.874 254.372 127.837 254.006 125.801 253.68C121.406 252.988 117.047 253.069 112.617 252.743C103.506 252.051 94.3239 251.929 85.1773 251.277C75.8879 250.666 66.5984 250.096 57.3089 249.404C46.4474 248.589 35.5501 248.589 24.6885 248.345C24.6171 248.345 24.7243 248.182 24.7957 248.182C43.3032 247.775 61.6678 249.037 80.1396 250.178C89.3933 250.748 98.6471 251.318 107.901 251.684C112.01 251.847 116.118 252.092 120.227 252.092C124.693 252.092 129.231 253.313 133.626 253.924C135.769 254.209 211.657 253.802 212.8 256.286C213.444 257.712 209.478 258.2 209.263 258.2C200.831 259.748 120.192 259.666 111.617 259.87C93.4307 260.277 75.2447 259.788 57.0588 259.626C41.8741 259.503 26.6894 259.259 11.5046 258.852L11.5404 258.933Z" fill="#D28B57"/>
<path d="M21.7946 257.549C21.7946 257.549 21.8661 257.304 21.9732 257.304C28.6545 257.182 35.3358 257.467 41.9813 257.508C49.1985 257.508 56.4158 257.264 63.5972 257.182C70.8502 257.141 78.0317 257.182 85.2846 257.182C88.4645 257.182 91.68 256.816 94.8956 256.856C95.9675 256.856 101.041 256.653 97.3609 255.879C89.9651 254.372 82.2119 254.739 74.7446 254.087C67.5989 253.435 60.4531 253.069 53.3074 252.499C46.4832 251.969 39.659 252.092 32.8705 251.562C29.512 251.318 26.1535 251.073 22.795 250.788C22.1519 250.748 21.473 250.666 20.7942 250.625C20.9371 250.503 21.08 250.34 21.2229 250.218C24.903 250.218 28.6188 250.666 32.2988 250.911C39.8019 251.399 47.3407 251.277 54.8437 251.888C62.704 252.499 70.5643 252.987 78.4247 253.68C82.4263 254.046 86.4279 254.087 90.4295 254.413C93.5022 254.657 97.0036 254.576 99.8619 255.96C99.8977 255.96 99.9334 256.042 99.9334 256.083C99.2545 258.322 94.8956 257.386 93.2878 257.386C89.4291 257.386 85.5704 257.711 81.7117 257.63C77.7816 257.508 73.8514 257.304 69.9212 257.426C53.8433 257.915 37.8011 257.956 21.7589 257.549H21.7946Z" fill="#D28B57"/>
<path d="M53.8788 254.942C51.9137 255.024 49.9129 254.82 47.9121 254.698C43.6604 254.372 39.3015 254.169 35.014 254.209C31.1553 254.209 27.2609 254.332 23.4022 254.209C21.4014 254.128 19.4006 253.965 17.364 253.761C17.6141 253.558 17.8642 253.313 18.0786 253.11C24.2597 253.191 30.4765 253.354 36.6575 253.395C40.8735 253.395 45.1253 253.761 49.3055 254.169C52.5211 254.494 56.2012 253.843 59.2738 254.861C59.4168 254.902 59.0952 255.228 58.988 255.187C57.273 254.698 55.5581 254.902 53.8073 254.983L53.8788 254.942Z" fill="#D28B57"/>
<path d="M427.566 259.91C427.923 259.992 428.316 260.073 428.674 260.196C428.816 260.318 428.924 260.44 429.067 260.603C427.03 260.725 424.993 260.888 422.957 260.969C419.563 261.132 416.204 260.725 412.846 260.644C406.164 260.481 399.483 260.399 392.802 260.44C379.153 260.481 365.505 261.336 351.857 261.621C337.887 261.947 260.355 261.417 246.385 261.377C233.273 261.377 148.417 261.58 135.269 261.458C135.162 261.458 135.34 261.254 135.412 261.254C162.744 261.01 325.31 260.888 352.643 260.481C366.291 260.277 379.94 259.34 393.588 259.3C400.233 259.3 406.915 259.055 413.56 259.625C418.241 260.033 422.921 259.951 427.602 259.91H427.566Z" fill="#D28B57"/>
<path d="M435.605 267.2C435.605 267.2 435.855 267.445 435.962 267.567C433.711 267.485 431.46 267.77 429.209 267.648C426.708 267.526 424.207 267.608 421.671 267.648C416.99 267.648 412.31 268.015 407.629 268.015C397.411 268.015 387.264 268.341 377.045 268.178C355.93 267.77 271.324 268.178 250.244 267.974C250.137 267.974 250.316 267.77 250.387 267.77C271.503 267.037 356.18 267.404 377.331 267.77C382.512 267.852 387.657 268.015 392.838 267.77C398.018 267.526 403.127 267.037 408.308 267.037C412.953 267.037 417.598 266.752 422.278 266.793C424.743 266.793 427.173 266.834 429.638 267.078C431.639 267.282 433.64 267.078 435.605 267.282V267.2Z" fill="#D28B57"/>
<path d="M423.207 256.816C424.172 257.182 425.136 257.589 426.101 257.997C422.492 257.915 418.884 257.711 415.347 257.508C409.344 257.141 403.377 257.101 397.375 256.571C391.23 256.042 384.799 255.553 378.653 255.675C372.222 255.797 365.755 255.349 359.36 256.042C346.712 257.386 333.885 257.63 321.201 258.119C308.482 258.607 232.487 259.503 219.767 258.852C219.553 258.852 219.875 258.485 220.018 258.485C225.877 258.444 231.772 258.77 237.632 258.689C244.099 258.607 314.091 257.915 320.558 257.549C333.349 256.816 346.176 256.164 358.967 255.187C371.615 254.209 384.37 254.82 397.018 255.553C405.736 256.082 414.489 256.368 423.243 256.856L423.207 256.816Z" fill="#D28B57"/>
<path d="M135.019 249.119C139.235 249.811 215.087 250.992 219.232 251.888C228.557 253.924 237.811 254.535 247.279 254.902C247.386 254.902 247.207 255.105 247.136 255.105C238.096 255.594 229.414 254.983 220.482 253.273C215.98 252.418 139.842 251.196 135.376 250.178C130.696 249.078 125.944 248.915 121.192 248.508C121.013 248.508 121.299 248.142 121.442 248.182C125.98 248.386 130.517 248.427 134.983 249.16L135.019 249.119Z" fill="#D28B57"/>
</g>
<g style="mix-blend-mode:multiply" opacity="0.5">
<path d="M332.599 7.01443C324.131 6.81081 252.102 6.32212 243.634 6.36284C234.952 6.36284 226.377 5.46692 217.731 6.36284C213.872 6.77008 138.234 6.64791 134.34 6.68864C130.053 6.68864 125.801 7.09588 121.513 7.25877C112.76 7.58456 104.006 6.85153 95.2527 6.72936C86.7493 6.56646 78.2459 6.85153 69.7424 6.32212C59.4168 5.67054 48.7339 5.38547 38.444 6.19995C33.1562 6.60719 28.0827 6.72936 22.7591 6.48502C18.8289 6.32212 14.8988 6.56646 10.9686 6.72936C10.8614 6.60719 10.7542 6.48502 10.6113 6.36284C13.7912 6.15922 16.971 5.79271 20.1509 5.79271C24.6527 5.79271 29.1546 6.07778 33.6564 5.83343C37.9796 5.58909 42.267 4.97823 46.5902 4.85606C51.4136 4.73388 56.2369 4.85606 61.0246 4.85606C69.6352 4.9375 78.2101 5.46692 86.8208 5.46692C95.5028 5.46692 104.185 5.75198 112.903 5.99633C129.588 6.44429 218.017 4.57099 234.702 5.2633C251.959 5.9556 332.706 6.89226 349.999 7.1366C371.793 7.42167 393.588 7.09588 415.418 7.1366C415.561 7.1366 415.347 7.38094 415.239 7.38094C396.803 7.46239 378.367 7.38094 359.931 7.38094C350.82 7.38094 341.71 7.21805 332.599 6.9737V7.01443Z" fill="#D28B57"/>
<path d="M399.876 3.96011C393.588 4.00084 387.3 4.24518 380.976 4.16373C377.653 4.16373 374.294 3.75649 370.972 3.75649C367.935 3.75649 364.933 3.91939 361.897 3.71577C349.57 2.86056 337.137 3.2678 324.81 3.18636C319.344 3.18636 250.423 3.47142 244.956 3.10491C238.561 2.65694 232.165 3.47142 225.77 3.47142C225.627 3.47142 225.841 3.22708 225.913 3.22708C232.058 3.06418 238.168 2.45332 244.313 2.37188C247.064 2.37188 313.377 2.61622 316.128 2.61622C319.236 2.61622 322.309 2.29043 325.417 2.2497C337.815 2.20898 350.285 1.76102 362.647 2.5755C365.327 2.73839 367.97 2.73839 370.65 2.65694C373.937 2.53477 377.224 2.98274 380.511 3.14563C387.085 3.4307 393.695 3.2678 400.269 3.30853C412.167 3.38998 423.993 4.53025 435.891 4.73387C436.034 4.73387 435.819 4.97821 435.712 4.97821C423.743 4.85604 411.81 3.87866 399.84 3.96011H399.876Z" fill="#D28B57"/>
<path d="M431.925 11.8605C431.746 12.0234 431.532 12.1862 431.353 12.3491C415.418 12.3491 399.519 12.0234 383.584 12.0234C365.362 12.0234 347.176 11.4939 328.99 11.8605C324.596 11.9419 320.165 12.1455 315.771 12.4306C313.698 12.5528 248.1 12.6342 246.064 12.9193C244.17 13.1636 244.528 13.2043 242.991 13.2451C241.884 13.2043 240.847 13.4894 239.919 14.1003C240.383 14.6297 240.955 14.9962 241.598 15.1591C243.634 15.9736 245.85 15.8514 247.958 16.1365C250.03 16.4215 315.592 16.7881 317.629 17.1139C322.023 17.8062 326.382 17.7247 330.812 18.0505C339.923 18.7428 349.106 18.865 358.252 19.5166C367.542 20.1274 376.831 20.6976 386.121 21.3899C396.982 22.2043 407.879 22.2043 418.741 22.4487C418.812 22.4487 418.705 22.6116 418.634 22.6116C400.126 23.0188 381.762 21.7564 363.29 20.6161C354.036 20.046 344.782 19.4758 335.529 19.1093C331.42 18.9464 327.311 18.7021 323.202 18.7021C318.736 18.7021 250.673 17.4804 246.278 16.8695C244.135 16.5844 239.954 16.9917 238.811 14.5075C238.168 13.0822 242.134 12.6342 242.348 12.5935C250.78 11.046 323.238 11.1274 331.777 10.9238C349.963 10.5166 368.149 11.0053 386.335 11.1681C401.52 11.2903 416.704 11.5347 431.889 11.9419L431.925 11.8605Z" fill="#D28B57"/>
<path d="M421.671 13.2449C421.671 13.2449 421.599 13.4893 421.492 13.4893C414.811 13.6115 408.129 13.3264 401.484 13.2857C394.267 13.2857 387.049 13.53 379.868 13.6115C372.615 13.6522 365.433 13.6522 358.181 13.6115C355.001 13.6115 351.785 13.978 348.569 13.9373C347.498 13.9373 342.424 14.1409 346.104 14.9146C353.5 16.4214 361.253 16.0549 368.72 16.7065C375.866 17.3581 383.012 17.7246 390.158 18.2947C396.982 18.8241 403.806 18.702 410.595 19.2314C413.953 19.4757 417.312 19.7201 420.67 20.0051C421.313 20.0459 421.992 20.1273 422.671 20.168C422.528 20.2902 422.385 20.4531 422.242 20.5753C418.562 20.5753 414.846 20.1273 411.166 19.883C403.663 19.3943 396.124 19.5164 388.621 18.9056C380.761 18.2947 372.901 17.806 365.04 17.1137C361.039 16.7472 357.037 16.7065 353.036 16.3807C349.963 16.1364 346.461 16.2178 343.603 14.8332C343.567 14.8332 343.532 14.7517 343.532 14.711C344.211 12.4712 348.569 13.4078 350.177 13.4078C354.036 13.4078 357.895 13.0821 361.753 13.1635C365.684 13.2857 369.614 13.4893 373.544 13.3671C389.622 12.8784 405.664 12.8377 421.706 13.2449H421.671Z" fill="#D28B57"/>
<path d="M389.586 15.8514C391.551 15.7699 393.552 15.9735 395.553 16.0957C399.805 16.4215 404.164 16.6251 408.451 16.5844C412.31 16.5844 416.204 16.4622 420.063 16.5844C422.064 16.6659 424.065 16.8288 426.101 17.0324C425.851 17.236 425.601 17.4803 425.387 17.684C419.205 17.6025 412.989 17.4396 406.808 17.3989C402.592 17.3989 398.34 17.0324 394.16 16.6251C390.944 16.2993 387.264 16.9509 384.191 15.9328C384.048 15.8921 384.37 15.5663 384.477 15.607C386.192 16.0957 387.907 15.8921 389.658 15.8106L389.586 15.8514Z" fill="#D28B57"/>
<path d="M15.8993 10.8832C15.542 10.8018 15.149 10.7203 14.7917 10.5982C14.6488 10.476 14.5416 10.3538 14.3987 10.1909C16.4352 10.0688 18.4718 9.90586 20.5083 9.82441C23.9025 9.66151 27.261 10.0688 30.6195 10.1502C37.3008 10.2724 43.9821 10.3945 50.6634 10.3538C64.3117 10.3131 77.9601 9.45789 91.6085 9.17283C105.578 8.84703 119.584 9.37645 133.554 9.41717C146.667 9.41717 231.522 9.21355 244.67 9.33572C244.778 9.33572 244.599 9.53934 244.528 9.53934C217.195 9.78369 118.155 9.90586 90.8225 10.3131C77.1741 10.5167 63.5257 11.4534 49.8773 11.4941C43.2318 11.4941 36.5505 11.7384 29.905 11.1683C25.2245 10.7611 20.544 10.8425 15.8636 10.8832H15.8993Z" fill="#D28B57"/>
<path d="M7.86022 3.59379C7.86022 3.59379 7.61012 3.34944 7.50293 3.22727C9.75384 3.30872 12.0048 3.02365 14.2557 3.14582C16.7567 3.268 19.2577 3.18655 21.7944 3.14582C26.4749 3.14582 31.1554 2.77931 35.8358 2.77931C46.0543 2.77931 56.2012 2.45352 66.4196 2.61641C87.5353 3.02365 108.615 2.61641 129.695 2.82003C129.802 2.82003 129.624 3.02365 129.552 3.02365C108.437 3.75668 87.2852 3.39017 66.1338 3.02365C60.9531 2.9422 55.8082 2.77931 50.6275 3.02365C45.4469 3.268 40.3377 3.75668 35.157 3.75668C30.5122 3.75668 25.8675 4.04175 21.187 4.00103C18.7218 4.00103 16.2922 3.9603 13.8269 3.71596C11.8261 3.51234 9.8253 3.71596 7.86022 3.51234V3.59379Z" fill="#D28B57"/>
<path d="M20.258 13.9782C19.2934 13.6116 18.3287 13.2044 17.364 12.7972C20.9726 12.8786 24.5812 13.0822 28.1184 13.2859C34.1208 13.6524 40.0875 13.6931 46.0899 14.2225C52.2353 14.7519 58.6664 15.2406 64.8118 15.1184C71.243 14.9963 77.7099 15.4442 84.1053 14.7519C96.7533 13.408 109.58 13.1637 122.264 12.675C134.983 12.1863 219.196 11.2904 231.915 11.942C232.13 11.942 231.808 12.3085 231.665 12.3085C225.806 12.3492 219.91 12.0234 214.051 12.1049C207.584 12.1863 129.409 12.8786 122.942 13.2451C110.152 13.9782 97.325 14.6297 84.5341 15.6071C71.8861 16.5845 59.1309 15.9736 46.4829 15.2406C37.7651 14.7112 29.0116 14.4261 20.258 13.9374V13.9782Z" fill="#D28B57"/>
<path d="M244.92 21.6752C240.704 20.9829 236.596 19.8019 232.415 18.906C223.09 16.8698 142.093 16.2589 132.625 15.8924C132.518 15.8924 132.696 15.6888 132.768 15.6888C141.807 15.2001 222.233 15.8109 231.129 17.5214C235.631 18.3766 240.026 19.5983 244.492 20.6164C249.172 21.7159 317.45 21.8788 322.202 22.2861C322.38 22.2861 322.095 22.6526 321.952 22.6119C317.414 22.4082 249.351 22.3675 244.885 21.6345L244.92 21.6752Z" fill="#D28B57"/>
</g>
<g style="mix-blend-mode:multiply" opacity="0.5">
<path d="M433.711 99.8247C433.89 106.992 434.355 114.2 434.319 121.368C434.319 128.698 435.141 135.947 434.319 143.318C433.962 146.576 434.069 149.915 434.033 153.173C434.033 156.797 433.676 160.422 433.497 164.046C433.176 171.458 433.854 178.87 433.997 186.282C434.14 193.49 433.854 200.657 434.355 207.865C434.962 216.621 435.176 225.621 434.462 234.377C434.104 238.856 433.962 243.173 434.176 247.653C434.319 250.951 434.104 254.25 433.962 257.508C434.104 257.019 434.283 256.531 434.426 256.042C434.605 253.965 434.783 251.929 434.783 249.852C434.783 246.024 434.497 242.236 434.748 238.408C434.962 234.743 435.534 231.119 435.641 227.454C435.748 223.381 435.641 219.309 435.641 215.236C435.569 207.947 435.105 200.698 435.105 193.408C435.105 186.037 434.855 178.707 434.64 171.336C434.247 157.205 435.891 143.074 435.284 128.983C434.676 114.404 433.819 99.7839 433.604 85.2047C433.318 66.7568 433.64 48.3088 433.604 29.8609C433.604 29.7387 433.39 29.9423 433.39 30.0237C433.318 45.621 433.39 61.2183 433.39 76.8156C433.39 84.5124 433.569 92.25 433.747 99.9468L433.711 99.8247Z" fill="#D28B57"/>
<path d="M437.677 74.4127C437.534 72.1322 437.535 69.8924 437.606 67.6526C437.713 64.8833 437.32 62.0734 437.177 59.3041C436.927 53.725 437.07 48.1458 436.999 42.5666C436.927 33.7295 436.141 24.9331 435.82 16.1367C435.748 16.4625 435.677 16.7476 435.641 17.0734C435.641 17.0734 435.641 17.0734 435.641 17.1141C435.891 25.7069 436.534 34.2996 436.463 42.9331C436.427 48.2679 436.213 53.6028 436.284 58.9376C436.284 61.7476 436.641 64.5575 436.641 67.4082C436.641 69.9738 436.498 72.4987 436.677 75.105C437.463 85.5304 437.106 96.0779 437.141 106.503C437.141 111.146 436.891 115.707 437.213 120.309C437.606 125.725 436.891 131.141 436.891 136.558C436.891 136.68 437.106 136.476 437.106 136.435C437.249 131.223 437.785 126.051 437.856 120.838C437.856 118.476 437.606 116.155 437.642 113.793C437.642 111.186 437.928 108.539 437.963 105.933C437.999 95.467 438.392 84.9195 437.677 74.4127Z" fill="#D28B57"/>
<path d="M429.388 16.7881C429.245 17.236 429.067 17.6433 428.924 18.0913C428.924 30.96 429.21 43.8288 429.21 56.6976C429.21 72.0913 429.674 87.4849 429.353 102.919C429.281 106.666 429.102 110.372 428.852 114.118C428.745 115.87 428.674 117.621 428.424 119.372C428.209 120.96 428.174 120.675 428.102 121.978C428.138 122.915 427.888 123.811 427.352 124.584C426.887 124.177 426.566 123.729 426.423 123.159C425.673 121.449 425.78 119.575 425.53 117.784C425.28 116.032 424.958 114.322 424.672 112.571C424.065 108.824 424.136 105.159 423.85 101.413C423.243 93.675 423.1 85.9374 422.564 78.1999C421.992 70.3401 421.492 62.4804 420.885 54.6207C420.242 46.4759 420.17 38.2903 419.992 30.1456C419.92 30.5121 419.813 30.9193 419.742 31.2858C419.634 45.5392 420.635 59.7112 421.564 73.9646C422.064 81.7836 422.564 89.6026 422.921 97.4623C423.064 100.924 423.279 104.426 423.279 107.888C423.279 111.634 424.351 115.503 424.922 119.209C425.172 121.001 424.815 124.544 427.03 125.521C428.281 126.051 428.745 122.711 428.781 122.548C430.174 115.422 430.103 107.847 430.282 100.639C430.639 85.2451 430.21 69.8514 430.067 54.4985C429.96 41.9962 429.746 29.4532 429.424 16.951L429.388 16.7881Z" fill="#D28B57"/>
<path d="M428.173 75.2273C428.066 71.8879 427.888 68.5893 427.995 65.2499C428.424 51.6481 428.495 38.0871 428.102 24.4852C428.102 24.3631 427.852 24.5667 427.852 24.6481C427.745 30.3088 428.031 35.9287 428.031 41.5893C428.031 47.6979 427.816 53.8065 427.745 59.8744C427.709 65.983 427.709 72.0916 427.745 78.2409C427.745 80.9287 427.423 83.6572 427.459 86.3857C427.459 87.2816 427.28 91.5984 426.601 88.5033C425.244 82.2726 425.601 75.6753 424.994 69.3631C424.422 63.3359 424.065 57.268 423.564 51.2409C423.1 45.4988 423.207 39.716 422.743 33.9332C422.528 31.0825 422.314 28.2318 422.064 25.4219C421.957 24.3223 421.849 23.1006 421.742 21.8789C421.671 22.0418 421.564 22.2047 421.492 22.3269C421.492 22.897 421.528 23.4264 421.528 23.9558C421.492 27.0916 421.921 30.268 422.135 33.4038C422.564 39.7567 422.457 46.1097 422.993 52.5033C423.564 59.1413 423.993 65.8201 424.601 72.4581C424.922 75.8382 424.958 79.2183 425.244 82.5984C425.458 85.2047 425.422 88.1368 426.601 90.5803C426.601 90.621 426.673 90.6617 426.744 90.621C428.745 90.0508 427.923 86.345 427.923 85.0011C427.923 81.7432 428.245 78.4852 428.138 75.2273H428.173Z" fill="#D28B57"/>
<path d="M425.78 51.6478C425.851 49.9781 425.673 48.2677 425.565 46.5981C425.28 42.9736 425.101 39.3085 425.137 35.684C425.137 32.4261 425.244 29.1275 425.137 25.8695C425.065 23.6705 424.815 21.5121 424.601 19.313C424.422 19.6388 424.279 19.9646 424.136 20.2904C424.172 25.9103 424.351 31.4895 424.386 37.1094C424.386 40.6524 424.744 44.2768 425.101 47.8198C425.387 50.5483 424.779 53.6433 425.708 56.2496C425.744 56.3718 426.03 56.1275 425.994 56.0053C425.565 54.5392 425.744 53.1139 425.815 51.6478H425.78Z" fill="#D28B57"/>
<path d="M430.281 258.241C430.424 257.793 430.567 257.345 430.71 256.897C430.853 254.413 431.068 251.928 431.175 249.444C431.318 246.594 430.96 243.743 430.889 240.892C430.746 235.232 430.675 229.612 430.71 223.951C430.746 212.385 431.496 200.861 431.782 189.295C432.068 177.485 431.603 165.634 431.568 153.784C431.568 142.666 431.746 131.548 431.639 120.431C431.639 120.349 431.461 120.471 431.461 120.553C431.246 143.684 431.139 166.815 430.746 189.906C430.567 201.471 429.746 212.996 429.674 224.562C429.674 230.182 429.46 235.842 429.96 241.462C430.46 247.042 430.103 252.621 430.281 258.2V258.241Z" fill="#D28B57"/>
<path d="M436.748 260.073C436.856 259.666 436.963 259.259 437.07 258.852C437.106 257.508 437.213 256.164 437.141 254.779C437.034 252.662 437.106 250.544 437.141 248.426C437.141 244.476 437.463 240.526 437.463 236.535C437.463 227.902 437.785 219.309 437.606 210.635C437.249 192.797 437.606 174.92 437.392 157.083C437.392 157.001 437.213 157.123 437.213 157.205C436.57 175.083 436.891 192.96 437.213 210.879C437.284 215.236 437.427 219.635 437.213 223.992C436.999 228.39 436.534 232.707 436.534 237.105C436.534 241.055 436.284 244.965 436.32 248.915C436.32 250.992 436.355 253.069 436.57 255.146C436.748 256.775 436.57 258.444 436.748 260.073Z" fill="#D28B57"/>
<path d="M427.495 250.341C427.852 251.318 428.174 252.295 428.531 253.313C428.531 249.893 428.281 246.431 428.102 243.051C427.781 237.96 427.709 232.911 427.245 227.861C426.78 222.648 426.351 217.232 426.423 212.019C426.53 206.562 426.137 201.105 426.744 195.689C427.923 184.979 428.138 174.146 428.602 163.395C429.067 152.644 429.853 142.055 429.281 131.304C429.281 131.141 428.96 131.426 428.96 131.508C428.924 136.476 429.21 141.445 429.138 146.413C429.067 151.911 428.459 157.368 428.138 162.825C427.459 173.657 426.887 184.49 426.03 195.322C425.172 206.033 425.708 216.825 426.387 227.535C426.852 235.11 427.137 242.766 427.566 250.381L427.495 250.341Z" fill="#D28B57"/>
<path d="M420.527 120.268C421.171 123.811 422.207 127.313 422.993 130.856C424.815 138.757 425.351 146.576 425.708 154.598C425.708 154.68 425.887 154.557 425.887 154.476C426.316 146.82 425.78 139.449 424.243 131.915C423.457 128.128 422.385 124.381 421.456 120.594C420.492 116.643 420.313 112.612 419.956 108.58C419.956 108.417 419.634 108.662 419.634 108.784C419.813 112.612 419.849 116.44 420.527 120.268Z" fill="#D28B57"/>
</g>
<path d="M6.82403 258.403C6.82403 259.259 6.21664 259.951 5.46634 259.951C4.71603 259.951 4.10864 259.259 4.10864 258.403C4.10864 257.548 4.71603 256.856 5.46634 256.856C6.21664 256.856 6.82403 257.548 6.82403 258.403Z" fill="#6A3205"/>
<path d="M5.50217 260.44C4.5375 260.44 3.75146 259.544 3.75146 258.444C3.75146 257.345 4.5375 256.449 5.50217 256.449C6.46685 256.449 7.25288 257.345 7.25288 258.444C7.25288 259.544 6.46685 260.44 5.50217 260.44ZM5.50217 257.385C5.00197 257.385 4.57323 257.874 4.57323 258.444C4.57323 259.014 5.00197 259.503 5.50217 259.503C6.00238 259.503 6.43112 259.014 6.43112 258.444C6.43112 257.874 6.00238 257.385 5.50217 257.385Z" fill="#3C2101"/>
<path d="M11.2901 264.634C11.2901 265.489 10.6827 266.181 9.9324 266.181C9.1821 266.181 8.57471 265.489 8.57471 264.634C8.57471 263.779 9.1821 263.086 9.9324 263.086C10.6827 263.086 11.2901 263.779 11.2901 264.634Z" fill="#6A3205"/>
<path d="M9.96824 266.63C9.00356 266.63 8.21753 265.734 8.21753 264.634C8.21753 263.535 9.00356 262.639 9.96824 262.639C10.9329 262.639 11.7189 263.535 11.7189 264.634C11.7189 265.734 10.9329 266.63 9.96824 266.63ZM9.96824 263.575C9.46804 263.575 9.03929 264.064 9.03929 264.634C9.03929 265.204 9.46804 265.693 9.96824 265.693C10.4684 265.693 10.8972 265.204 10.8972 264.634C10.8972 264.064 10.4684 263.575 9.96824 263.575Z" fill="#3C2101"/>
<path d="M434.319 258.403C434.319 259.259 434.926 259.951 435.676 259.951C436.427 259.951 437.034 259.259 437.034 258.403C437.034 257.548 436.427 256.856 435.676 256.856C434.926 256.856 434.319 257.548 434.319 258.403Z" fill="#6A3205"/>
<path d="M435.676 260.44C434.712 260.44 433.926 259.544 433.926 258.444C433.926 257.345 434.712 256.449 435.676 256.449C436.641 256.449 437.427 257.345 437.427 258.444C437.427 259.544 436.641 260.44 435.676 260.44ZM435.676 257.385C435.176 257.385 434.747 257.874 434.747 258.444C434.747 259.014 435.176 259.503 435.676 259.503C436.176 259.503 436.605 259.014 436.605 258.444C436.605 257.874 436.176 257.385 435.676 257.385Z" fill="#3C2101"/>
<path d="M429.888 264.634C429.888 265.489 430.496 266.181 431.246 266.181C431.996 266.181 432.604 265.489 432.604 264.634C432.604 263.779 431.996 263.086 431.246 263.086C430.496 263.086 429.888 263.779 429.888 264.634Z" fill="#6A3205"/>
<path d="M431.21 266.63C430.246 266.63 429.459 265.734 429.459 264.634C429.459 263.535 430.246 262.639 431.21 262.639C432.175 262.639 432.961 263.535 432.961 264.634C432.961 265.734 432.175 266.63 431.21 266.63ZM431.21 263.575C430.71 263.575 430.281 264.064 430.281 264.634C430.281 265.204 430.71 265.693 431.21 265.693C431.71 265.693 432.139 265.204 432.139 264.634C432.139 264.064 431.71 263.575 431.21 263.575Z" fill="#3C2101"/>
<path d="M6.82403 12.1457C6.82403 11.2905 6.21664 10.5981 5.46634 10.5981C4.71603 10.5981 4.10864 11.2905 4.10864 12.1457C4.10864 13.0009 4.71603 13.6932 5.46634 13.6932C6.21664 13.6932 6.82403 13.0009 6.82403 12.1457Z" fill="#6A3205"/>
<path d="M5.50217 14.1413C4.5375 14.1413 3.75146 13.2454 3.75146 12.1459C3.75146 11.0463 4.5375 10.1504 5.50217 10.1504C6.46685 10.1504 7.25288 11.0463 7.25288 12.1459C7.25288 13.2454 6.46685 14.1413 5.50217 14.1413ZM5.50217 11.087C5.00197 11.087 4.57323 11.5757 4.57323 12.1459C4.57323 12.716 5.00197 13.2047 5.50217 13.2047C6.00238 13.2047 6.43112 12.716 6.43112 12.1459C6.43112 11.5757 6.00238 11.087 5.50217 11.087Z" fill="#3C2101"/>
<path d="M11.2901 5.9147C11.2901 5.0595 10.6827 4.36719 9.9324 4.36719C9.1821 4.36719 8.57471 5.0595 8.57471 5.9147C8.57471 6.7699 9.1821 7.46221 9.9324 7.46221C10.6827 7.46221 11.2901 6.7699 11.2901 5.9147Z" fill="#6A3205"/>
<path d="M9.96824 7.91038C9.00356 7.91038 8.21753 7.01446 8.21753 5.91491C8.21753 4.81536 9.00356 3.91943 9.96824 3.91943C10.9329 3.91943 11.7189 4.81536 11.7189 5.91491C11.7189 7.01446 10.9329 7.91038 9.96824 7.91038ZM9.96824 4.85609C9.46804 4.85609 9.03929 5.34477 9.03929 5.91491C9.03929 6.48504 9.46804 6.97373 9.96824 6.97373C10.4684 6.97373 10.8972 6.48504 10.8972 5.91491C10.8972 5.34477 10.4684 4.85609 9.96824 4.85609Z" fill="#3C2101"/>
<path d="M434.319 12.1457C434.319 11.2905 434.926 10.5981 435.676 10.5981C436.427 10.5981 437.034 11.2905 437.034 12.1457C437.034 13.0009 436.427 13.6932 435.676 13.6932C434.926 13.6932 434.319 13.0009 434.319 12.1457Z" fill="#6A3205"/>
<path d="M435.676 14.1413C434.712 14.1413 433.926 13.2454 433.926 12.1459C433.926 11.0463 434.712 10.1504 435.676 10.1504C436.641 10.1504 437.427 11.0463 437.427 12.1459C437.427 13.2454 436.641 14.1413 435.676 14.1413ZM435.676 11.087C435.176 11.087 434.747 11.5757 434.747 12.1459C434.747 12.716 435.176 13.2047 435.676 13.2047C436.176 13.2047 436.605 12.716 436.605 12.1459C436.605 11.5757 436.176 11.087 435.676 11.087Z" fill="#3C2101"/>
<path d="M429.888 5.9147C429.888 5.0595 430.496 4.36719 431.246 4.36719C431.996 4.36719 432.604 5.0595 432.604 5.9147C432.604 6.7699 431.996 7.46221 431.246 7.46221C430.496 7.46221 429.888 6.7699 429.888 5.9147Z" fill="#6A3205"/>
<path d="M431.21 7.91038C430.246 7.91038 429.459 7.01446 429.459 5.91491C429.459 4.81536 430.246 3.91943 431.21 3.91943C432.175 3.91943 432.961 4.81536 432.961 5.91491C432.961 7.01446 432.175 7.91038 431.21 7.91038ZM431.21 4.85609C430.71 4.85609 430.281 5.34477 430.281 5.91491C430.281 6.48504 430.71 6.97373 431.21 6.97373C431.71 6.97373 432.139 6.48504 432.139 5.91491C432.139 5.34477 431.71 4.85609 431.21 4.85609Z" fill="#3C2101"/>
<g style="mix-blend-mode:multiply">
<path d="M432.568 9.86523H8.6106V260.481H432.568V9.86523Z" fill="#D28B57"/>
</g>
<path d="M428.495 14.3452H12.5408V255.757H428.495V14.3452Z" fill="#BCBEC0"/>
<path d="M428.495 256.246H12.5408C12.2907 256.246 12.1121 256.042 12.1121 255.757V14.3451C12.1121 14.0601 12.2907 13.8564 12.5408 13.8564H428.495C428.745 13.8564 428.924 14.0601 428.924 14.3451V255.757C428.924 256.042 428.745 256.246 428.495 256.246ZM12.9696 255.268H428.066V14.8338H12.9696V255.268Z" fill="#6D6E71"/>
<path d="M425.923 18.4175H15.7207V253.273H425.923V18.4175Z" fill="white"/>
</svg>
